<?xml version="1.0" encoding="UTF-8"?>
<svg xmlns="http://www.w3.org/2000/svg" width="121" height="30" viewBox="0 0 121 30" fill="none">
  <g clip-path="url(#clip0_118_920)">
    <path d="M4.73303 21.7891C3.27812 20.9698 2.07564 19.7673 1.25631 18.3124C0.432048 16.8073 0 15.1188 0 13.4028C0 11.6867 0.432048 9.99828 1.25631 8.49314C2.07763 7.04869 3.2804 5.85794 4.73303 5.05118C6.24887 4.20173 7.96237 3.76822 9.69978 3.79459C11.5603 3.76003 13.3892 4.27861 14.9546 5.28462C16.4278 6.21114 17.5405 7.61295 18.1085 9.25802L14.2444 10.9517C13.9066 10.0343 13.29 9.24575 12.4812 8.69678C11.6888 8.17661 10.7663 7.88961 9.8187 7.86853C8.87112 7.84745 7.9367 8.09314 7.12204 8.57757C6.34654 9.06048 5.71925 9.74792 5.30917 10.5643C4.87452 11.4562 4.64863 12.4354 4.64863 13.4276C4.64863 14.4198 4.87452 15.399 5.30917 16.2909C5.71925 17.1073 6.34654 17.7947 7.12204 18.2776C7.8975 18.7519 8.79087 18.998 9.69978 18.9879C10.6956 19.0099 11.6733 18.7199 12.4961 18.1584C13.3059 17.5988 13.9178 16.7974 14.2444 15.8688L18.1085 17.632C17.5484 19.2613 16.4408 20.6462 14.9745 21.5507C13.4009 22.555 11.5662 23.0733 9.69978 23.0408C7.9624 23.0722 6.24802 22.6402 4.73303 21.7891Z" fill="#070633"></path>
    <path d="M20.8253 21.6357C20.2612 21.1661 19.8131 20.5727 19.5158 19.9016C19.2186 19.2305 19.0804 18.4999 19.1118 17.7666C19.0908 17.0466 19.222 16.3303 19.4967 15.6644C19.7714 14.9986 20.1836 14.3982 20.7061 13.9024C21.769 12.8826 23.3617 12.2055 25.4841 11.871L30.9823 10.987V10.376C30.9894 9.99548 30.9088 9.6184 30.7469 9.27392C30.585 8.92944 30.3461 8.62679 30.0486 8.38934C29.3417 7.83884 28.4599 7.56196 27.5652 7.60956C26.6633 7.59441 25.7793 7.86187 25.0371 8.37444C24.3115 8.87097 23.7511 9.57325 23.4279 10.3909L19.7972 8.62775C20.363 7.16169 21.415 5.93435 22.7773 5.15102C24.2755 4.25148 25.9968 3.79191 27.744 3.8249C29.1143 3.80125 30.4724 4.08644 31.7174 4.65931C32.8284 5.16278 33.7714 5.97475 34.4342 6.99866C35.0799 8.01654 35.4147 9.20059 35.3978 10.4058V22.6638H31.1959V20.6771C30.4639 21.4653 29.5699 22.0856 28.5753 22.4954C27.5808 22.9053 26.5093 23.0949 25.4345 23.0512C23.5008 23.0578 21.9644 22.586 20.8253 21.6357ZM24.4362 19.1076C24.9647 19.4991 25.6117 19.6972 26.2689 19.6688C26.8925 19.6912 27.5141 19.587 28.0963 19.3624C28.6784 19.1379 29.2091 18.7978 29.6562 18.3626C30.0887 17.9435 30.4297 17.4394 30.6579 16.8821C30.8861 16.3248 30.9966 15.7263 30.9823 15.1243V14.3792L26.3335 15.159C25.6053 15.2624 24.9188 15.5611 24.3468 16.0232C24.1405 16.228 23.9803 16.4743 23.8767 16.7457C23.773 17.0172 23.7284 17.3076 23.7458 17.5977C23.7319 17.8862 23.7873 18.1739 23.9074 18.4366C24.0275 18.6993 24.2088 18.9294 24.4362 19.1076Z" fill="#070633"></path>
    <path d="M36.9775 4.20153H41.1297V6.372C41.8132 5.55345 42.6768 4.90409 43.6529 4.4747C44.7363 4.00286 45.9083 3.76912 47.0898 3.78929C48.7387 3.77707 50.3601 4.21218 51.7813 5.0483C53.2026 5.88443 54.3705 7.09028 55.1608 8.5375C55.9584 10.0422 56.3754 11.7193 56.3754 13.4223C56.3754 15.1253 55.9584 16.8024 55.1608 18.3071C54.3716 19.7628 53.199 20.9748 51.7702 21.8118C50.3414 22.6487 48.7108 23.0788 47.0551 23.0553C45.9781 23.0646 44.9088 22.8743 43.9012 22.4941C42.965 22.1471 42.117 21.5976 41.4178 20.8848V29.4277H36.9775V4.20153ZM42.0834 16.2906C42.4951 17.1105 43.1283 17.7988 43.9111 18.2773C44.7037 18.7541 45.6137 19.0001 46.5385 18.9876C47.2397 19.0075 47.937 18.8773 48.5837 18.6057C49.2304 18.3342 49.8117 17.9276 50.2884 17.4131C51.2869 16.3352 51.822 14.9083 51.7785 13.4397C51.781 12.4463 51.5351 11.468 51.0632 10.5937C50.6317 9.77654 49.9884 9.09037 49.2007 8.60704C48.3954 8.13562 47.4791 7.88715 46.546 7.88715C45.6129 7.88715 44.6966 8.13562 43.8913 8.60704C43.1084 9.08557 42.4752 9.7738 42.0635 10.5937C41.6256 11.4847 41.3979 12.4643 41.3979 13.4571C41.3979 14.4499 41.6256 15.4294 42.0635 16.3204L42.0834 16.2906Z" fill="#070633"></path>
    <path d="M61.2752 21.1435C60.1329 20.0012 59.5617 18.3903 59.5617 16.3109V8.17039H56.373V4.19699H56.7158C57.4824 4.24679 58.2376 3.99148 58.8167 3.48674C59.0771 3.21265 59.2778 2.88749 59.406 2.53183C59.5342 2.17618 59.5873 1.79778 59.5617 1.42057V-0.00488281H64.0069V4.19699H68.2436V8.17039H64.0069V16.0725C64.0069 17.9963 65.0466 18.9565 67.1261 18.9532C67.5238 18.9518 67.9207 18.9186 68.3131 18.8539V22.6882C67.5833 22.7995 66.8461 22.8559 66.1079 22.8571C64.0252 22.8571 62.4143 22.2859 61.2752 21.1435Z" fill="#070633"></path>
    <path d="M73.9101 21.7694C72.4959 20.9369 71.3352 19.735 70.5525 18.2926C69.7599 16.7837 69.3457 15.1048 69.3457 13.4004C69.3457 11.696 69.7599 10.017 70.5525 8.50814C71.3213 7.07355 72.4685 5.87707 73.8696 5.04871C75.2706 4.22035 76.8718 3.79179 78.4993 3.80959C80.185 3.7671 81.8505 4.18433 83.3171 5.01652C84.6444 5.78554 85.7208 6.92231 86.4163 8.2896C87.1369 9.69494 87.5035 11.255 87.4842 12.8342C87.5018 13.4633 87.4231 14.0914 87.2507 14.6967H73.9597C74.0304 15.9374 74.5851 17.1008 75.5046 17.9367C76.4242 18.7727 77.635 19.2143 78.8768 19.1668C79.7719 19.193 80.6574 18.9768 81.4396 18.541C82.1546 18.1207 82.7445 17.5171 83.1482 16.7927L86.7441 18.5608C86.1454 19.9536 85.0958 21.1046 83.7641 21.829C82.2663 22.677 80.5678 23.1059 78.847 23.0707C77.113 23.0988 75.4049 22.6485 73.9101 21.7694ZM82.7459 11.2895C82.6676 10.2348 82.194 9.24854 81.4198 8.528C80.6251 7.80431 79.5784 7.42094 78.5043 7.46016C77.4552 7.43002 76.4311 7.78316 75.6236 8.45351C74.7936 9.18971 74.2428 10.1896 74.064 11.2846L82.7459 11.2895Z" fill="#070633"></path>
    <path d="M88.5273 4.2023H92.6994V6.47707C93.1738 5.616 93.9023 4.92223 94.7855 4.49037C95.7605 4.01412 96.8345 3.77582 97.9195 3.79502C99.1741 3.77669 100.412 4.08113 101.515 4.6791C102.566 5.24902 103.429 6.11172 103.999 7.16248C104.602 8.27627 104.906 9.52697 104.883 10.7932V22.6637H100.433V11.8362C100.482 10.7749 100.109 9.73734 99.3946 8.95051C98.6697 8.25566 97.7043 7.86773 96.7001 7.86773C95.696 7.86773 94.7306 8.25566 94.0057 8.95051C93.2918 9.73734 92.9185 10.7749 92.9676 11.8362V22.6637H88.5273V4.2023Z" fill="#070633"></path>
    <path d="M108.911 21.7048C107.539 20.8622 106.49 19.5837 105.931 18.0741L109.219 16.3755C109.664 17.3124 110.349 18.1145 111.205 18.6999C112.01 19.2501 112.963 19.5412 113.937 19.5343C114.648 19.5734 115.353 19.3893 115.954 19.0078C116.187 18.8474 116.376 18.6309 116.503 18.3784C116.631 18.1259 116.693 17.8453 116.684 17.5625C116.687 17.3135 116.634 17.067 116.528 16.8416C116.422 16.6161 116.267 16.4177 116.073 16.2612C115.615 15.8877 115.064 15.6472 114.478 15.5659L111.459 15.0692C110.069 14.7615 108.808 14.0331 107.848 12.9832C107.095 12.0931 106.65 10.9831 106.58 9.81923C106.51 8.65536 106.819 7.50015 107.46 6.5264C108.072 5.63451 108.925 4.9351 109.919 4.5099C111.046 4.01747 112.265 3.77353 113.495 3.79468C115.07 3.76259 116.621 4.18136 117.965 5.00161C119.238 5.78287 120.225 6.95316 120.781 8.33927L117.493 10.0379C117.136 9.25492 116.558 8.59361 115.829 8.13563C115.088 7.66288 114.225 7.4161 113.346 7.42539C112.713 7.38954 112.086 7.56418 111.563 7.92206C111.355 8.07402 111.186 8.2738 111.071 8.50458C110.956 8.73536 110.898 8.99039 110.902 9.24818C110.902 10.2415 111.649 10.9038 113.142 11.2349L116.093 11.7763C117.482 12.1037 118.743 12.8346 119.718 13.8772C120.478 14.7548 120.929 15.8581 120.999 17.0168C121.07 18.1756 120.758 19.3255 120.111 20.2893C119.47 21.174 118.594 21.8621 117.583 22.276C116.39 22.7698 115.108 23.0117 113.818 22.9862C112.094 23.0344 110.391 22.5899 108.911 21.7048Z" fill="#070633"></path>
    <path d="M49.211 25.623H45.3965C44.3432 25.623 43.4893 26.4769 43.4893 27.5303C43.4893 28.5836 44.3432 29.4375 45.3965 29.4375H49.211C50.2643 29.4375 51.1182 28.5836 51.1182 27.5303C51.1182 26.4769 50.2643 25.623 49.211 25.623Z" fill="#01D5E1"></path>
    <path d="M66.5351 25.623H55.0967C54.0434 25.623 53.1895 26.4769 53.1895 27.5303C53.1895 28.5836 54.0434 29.4375 55.0967 29.4375H66.5351C67.5885 29.4375 68.4424 28.5836 68.4424 27.5303C68.4424 26.4769 67.5885 25.623 66.5351 25.623Z" fill="#FE6BA2"></path>
    <path d="M91.0601 25.623H72.4199C71.3666 25.623 70.5127 26.4769 70.5127 27.5303C70.5127 28.5836 71.3666 29.4375 72.4199 29.4375H91.0601C92.1135 29.4375 92.9674 28.5836 92.9674 27.5303C92.9674 26.4769 92.1135 25.623 91.0601 25.623Z" fill="#FF8902"></path>
  </g>
  <defs>
    <clipPath id="clip0_118_920">
      <rect width="121" height="29.4379" fill="white"></rect>
    </clipPath>
  </defs>
</svg>
